<svg version="1.1" viewBox="0.0 0.0 128.0 128.0" fill="none" stroke="none" stroke-linecap="square" stroke-miterlimit="10" xmlns:xlink="http://www.w3.org/1999/xlink" xmlns="http://www.w3.org/2000/svg"><clipPath id="p.0"><path d="m0 0l128.0 0l0 128.0l-128.0 0l0 -128.0z" clip-rule="nonzero"/></clipPath><g clip-path="url(#p.0)"><path fill="#000000" fill-opacity="0.0" d="m0 0l128.0 0l0 128.0l-128.0 0z" fill-rule="evenodd"/><defs><radialGradient id="p.1" gradientUnits="userSpaceOnUse" gradientTransform="matrix(9.148481723639668 0.0 0.0 9.148481723639668 0.0 0.0)" spreadMethod="pad" cx="6.995696327908058" cy="6.99569733204754" fx="6.995696327908058" fy="6.99569733204754" r="9.148481369018555"><stop offset="0.0" stop-color="#ff00ff"/><stop offset="1.0" stop-color="#0000ff"/></radialGradient></defs><path fill="url(#p.1)" d="m4.8188977 64.00001l0 0c0 -32.68482 26.496283 -59.1811 59.181103 -59.1811l0 0c15.695801 0 30.748749 6.235134 41.84736 17.333744c11.09861 11.098608 17.33374 26.151556 17.33374 41.84736l0 0c0 32.684822 -26.496277 59.181107 -59.1811 59.181107l0 0c-32.684822 0 -59.181103 -26.496284 -59.181103 -59.181107z" fill-rule="evenodd"/><path stroke="#000000" stroke-width="8.0" stroke-linejoin="round" stroke-linecap="butt" d="m4.8188977 64.00001l0 0c0 -32.68482 26.496283 -59.1811 59.181103 -59.1811l0 0c15.695801 0 30.748749 6.235134 41.84736 17.333744c11.09861 11.098608 17.33374 26.151556 17.33374 41.84736l0 0c0 32.684822 -26.496277 59.181107 -59.1811 59.181107l0 0c-32.684822 0 -59.181103 -26.496284 -59.181103 -59.181107z" fill-rule="evenodd"/><path fill="#000000" fill-opacity="0.0" d="m64.0 34.40945l0 0c32.684822 0 59.1811 13.248138 59.1811 29.59055l0 0c0 7.8479004 -6.2351303 15.374374 -17.33374 20.923683c-11.09861 5.549301 -26.151558 8.66687 -41.84736 8.66687l0 0c-32.684822 0 -59.181103 -13.248146 -59.181103 -29.590553l0 0c0 -16.342411 26.496283 -29.59055 59.181103 -29.59055z" fill-rule="evenodd"/><path stroke="#ffffff" stroke-width="1.0" stroke-linejoin="round" stroke-linecap="butt" stroke-dasharray="4.0,3.0" d="m64.0 34.40945l0 0c32.684822 0 59.1811 13.248138 59.1811 29.59055l0 0c0 7.8479004 -6.2351303 15.374374 -17.33374 20.923683c-11.09861 5.549301 -26.151558 8.66687 -41.84736 8.66687l0 0c-32.684822 0 -59.181103 -13.248146 -59.181103 -29.590553l0 0c0 -16.342411 26.496283 -29.59055 59.181103 -29.59055z" fill-rule="evenodd"/><path fill="#000000" fill-opacity="0.0" d="m34.40945 64.0l0 0c0 -32.684822 13.248138 -59.181103 29.59055 -59.181103l0 0c7.8479004 0 15.374374 6.2351336 20.923683 17.333744c5.549301 11.09861 8.66687 26.151554 8.66687 41.84736l0 0c0 32.684822 -13.248146 59.1811 -29.590553 59.1811l0 0c-16.342411 0 -29.59055 -26.496277 -29.59055 -59.1811z" fill-rule="evenodd"/><path stroke="#ffffff" stroke-width="1.0" stroke-linejoin="round" stroke-linecap="butt" stroke-dasharray="4.0,3.0" d="m34.40945 64.0l0 0c0 -32.684822 13.248138 -59.181103 29.59055 -59.181103l0 0c7.8479004 0 15.374374 6.2351336 20.923683 17.333744c5.549301 11.09861 8.66687 26.151554 8.66687 41.84736l0 0c0 32.684822 -13.248146 59.1811 -29.590553 59.1811l0 0c-16.342411 0 -29.59055 -26.496277 -29.59055 -59.1811z" fill-rule="evenodd"/><path fill="#000000" fill-opacity="0.0" d="m4.8188977 64.0l118.3622 0" fill-rule="evenodd"/><path stroke="#ffffff" stroke-width="1.0" stroke-linejoin="round" stroke-linecap="butt" d="m4.8188977 64.0l118.3622 0" fill-rule="evenodd"/><path fill="#000000" fill-opacity="0.0" d="m64.0 4.8188977l0 118.3622" fill-rule="evenodd"/><path stroke="#ffffff" stroke-width="1.0" stroke-linejoin="round" stroke-linecap="butt" d="m64.0 4.8188977l0 118.3622" fill-rule="evenodd"/></g></svg>