<svg version="1.1" viewBox="0.0 0.0 2496.0 480.0" fill="none" stroke="none" stroke-linecap="square" stroke-miterlimit="10" xmlns:xlink="http://www.w3.org/1999/xlink" xmlns="http://www.w3.org/2000/svg"><clipPath id="p.0"><path d="m0 0l2496.0 0l0 480.0l-2496.0 0l0 -480.0z" clip-rule="nonzero"/></clipPath><g clip-path="url(#p.0)"><path fill="#000000" fill-opacity="0.0" d="m0 0l2496.0 0l0 480.0l-2496.0 0z" fill-rule="evenodd"/><defs><linearGradient id="p.1" gradientUnits="userSpaceOnUse" gradientTransform="matrix(20.643305177255428 0.0 0.0 20.643305177255428 0.0 0.0)" spreadMethod="pad" x1="59.29645435355374" y1="1.3042881104594777" x2="59.29637886181748" y2="21.94759328757688"><stop offset="0.0" stop-color="#ff00ff"/><stop offset="1.0" stop-color="#0000ff"/></linearGradient></defs><path fill="url(#p.1)" d="m1224.0748 97.95418l0 0c0 -39.226048 31.79895 -71.02504 71.025024 -71.02504l1050.7373 0c18.836914 0 36.902588 7.482975 50.222412 20.802753c13.31958 13.319778 20.802734 31.385277 20.802734 50.22229l0 284.09167c0 39.226044 -31.799072 71.025024 -71.02515 71.025024l-1050.7373 0c-39.226074 0 -71.025024 -31.79898 -71.025024 -71.025024z" fill-rule="evenodd"/><path fill="#000000" d="m158.89377 158.70746c26.539566 0 39.809326 11.730286 39.809326 35.190826c0 11.11113 -3.2965393 19.695496 -9.889572 25.753067c-6.559601 6.0575867 -16.532867 9.086365 -29.919754 9.086365l-38.8555 0l0 -70.03026zm-73.99614 -28.664719l0 214.3579l35.14064 0l0 -86.9982l38.8555 0c17.704208 0 32.212265 -3.0287933 43.5242 -9.086365c11.31192 -6.0575714 19.528122 -13.922394 24.648636 -23.594421c5.153961 -9.672043 7.730942 -19.946503 7.730942 -30.823364c0 -11.947815 -2.8279877 -22.741013 -8.483948 -32.379578c-5.65596 -9.672043 -14.19014 -17.33606 -25.602463 -22.99202c-11.412323 -5.65596 -25.35147 -8.483948 -41.817368 -8.483948z" fill-rule="evenodd"/><path fill="#000000" d="m344.2696 202.23164c9.069641 0 17.503387 2.2590332 25.30127 6.777115c7.83136 4.5180817 14.156647 11.094406 18.975952 19.728958c4.819275 8.634567 7.2289124 18.808624 7.2289124 30.522171c0 11.7135315 -2.4096375 21.954529 -7.2289124 30.72293c-4.8193054 8.734985 -11.144592 15.361481 -18.975952 19.879578c-7.797882 4.5180664 -16.231628 6.77713 -25.30127 6.77713c-8.835358 0 -17.218903 -2.3092651 -25.150635 -6.9277344c-7.898285 -4.618469 -14.273804 -11.345398 -19.126556 -20.180756c-4.819275 -8.868835 -7.228943 -19.160004 -7.228943 -30.873566c0 -11.713547 2.409668 -21.837402 7.228943 -30.371552c4.8527527 -8.534164 11.17807 -15.010071 18.975952 -19.42775c7.8313293 -4.417694 16.265076 -6.626526 25.301239 -6.626526zm-7.3795166 -30.572357c-14.826019 0 -28.363525 3.6646729 -40.61255 10.994003c-12.215546 7.2958527 -21.87088 17.520111 -28.965912 30.67276c-7.0950623 13.152634 -10.642609 28.263107 -10.642609 45.33142c0 17.068298 3.5475464 32.34613 10.642609 45.833435c7.0950623 13.453827 16.700195 23.929077 28.815308 31.42575c12.148621 7.4966736 25.51883 11.245026 40.110535 11.245026c13.186096 0 24.916382 -2.660675 35.190826 -7.981964c10.274445 -5.3547363 18.390259 -12.048218 24.347443 -20.080353l0 25.30127l35.492065 0l0 -169.9301l-35.492065 0l0 24.648651c-5.9571533 -7.797867 -13.922363 -14.32399 -23.89563 -19.578354c-9.973236 -5.254364 -21.636597 -7.881546 -34.99002 -7.881546z" fill-rule="evenodd"/><path fill="#000000" d="m563.5788 171.65929c-11.713562 0 -21.837402 2.4263763 -30.371521 7.279129c-8.53418 4.81929 -15.378235 11.546219 -20.532166 20.18077l0 -24.648651l-35.140656 0l0 169.9301l35.140656 0l0 -89.45804c0 -17.269104 3.5474854 -29.401001 10.642578 -36.39566c7.0950317 -6.9946594 17.536865 -10.491989 31.325378 -10.491989l8.93573 0l0 -36.39566z" fill-rule="evenodd"/><path fill="#000000" d="m601.4953 132.20137l0 42.269165l-20.030151 0l0 28.664719l20.030151 0l0 94.07651c0 16.666718 4.216858 28.698181 12.650635 36.09445c8.433716 7.3962708 20.565613 11.094421 36.39563 11.094421l27.761108 0l0 -29.317352l-21.586365 0c-7.1954956 0 -12.282471 -1.3888855 -15.261108 -4.1666565c-2.9785767 -2.7778015 -4.4678345 -7.3461 -4.4678345 -13.7048645l0 -94.07651l41.315308 0l0 -28.664719l-41.315308 0l0 -42.269165z" fill-rule="evenodd"/><path fill="#000000" d="m796.4539 171.65929c-10.073669 0 -19.595093 1.95784 -28.564331 5.8735046c-8.93573 3.91568 -16.2818 9.37085 -22.038208 16.365494l0 -19.42775l-35.140625 0l0 169.9301l35.140625 0l0 -94.98013c0 -15.227615 3.848755 -26.890945 11.546204 -34.990036c7.730957 -8.132553 18.17273 -12.198822 31.325378 -12.198822c13.152649 0 23.527527 4.066269 31.124573 12.198822c7.630554 8.099075 11.445801 19.76242 11.445801 34.990036l0 94.98013l34.839417 0l0 -100.251236c0 -15.428406 -2.9785767 -28.58104 -8.93573 -39.457916c-5.9571533 -10.910324 -14.240295 -19.143265 -24.849487 -24.698837c-10.575623 -5.5555725 -22.540161 -8.333359 -35.893616 -8.333359z" fill-rule="evenodd"/><path fill="#000000" d="m982.4209 201.27783c13.386902 0 24.59845 3.9156647 33.634583 11.747009c9.036194 7.797867 13.654602 18.17273 13.855408 31.124557l-94.07648 0c1.6734009 -13.152634 6.8273315 -23.577698 15.461914 -31.275162c8.6345215 -7.730942 19.0094 -11.596405 31.124573 -11.596405zm1.5562134 -29.618546c-16.666687 0 -31.425781 3.5977325 -44.27722 10.793198c-12.85144 7.195465 -22.824646 17.436447 -29.919739 30.722961c-7.0950317 13.2530365 -10.642578 28.614517 -10.642578 46.084442c0 17.46991 3.6479492 32.848114 10.943787 46.134613c7.3293457 13.253052 17.419739 23.527496 30.27118 30.823364c12.85144 7.295868 27.392944 10.943817 43.624573 10.943817c19.946472 0 36.646667 -4.9866333 50.100525 -14.959869c13.487305 -9.973267 22.791138 -22.774475 27.911743 -38.403717l-37.901733 0c-7.83136 15.830048 -21.201538 23.745026 -40.110535 23.745026c-13.152649 0 -24.263794 -4.0997314 -33.333435 -12.299225c-9.036133 -8.232941 -14.072998 -19.14328 -15.110474 -32.730988l129.86975 0c0.8366699 -5.1204834 1.2550049 -10.876862 1.2550049 -17.269104c0 -16.432434 -3.4973145 -30.973969 -10.491943 -43.624588c-6.994629 -12.650635 -16.76709 -22.473282 -29.317383 -29.467941c-12.550171 -6.9946594 -26.840698 -10.491989 -42.87152 -10.491989z" fill-rule="evenodd"/><path fill="#000000" d="m1187.2329 171.65929c-11.713501 0 -21.837402 2.4263763 -30.37146 7.279129c-8.53418 4.81929 -15.378296 11.546219 -20.532227 20.18077l0 -24.648651l-35.140625 0l0 169.9301l35.140625 0l0 -89.45804c0 -17.269104 3.5476074 -29.401001 10.642578 -36.39566c7.095093 -6.9946594 17.536865 -10.491989 31.32544 -10.491989l8.935669 0l0 -36.39566z" fill-rule="evenodd"/><path fill="#ffffff" d="m1362.1494 121.34583c-14.591797 0 -27.443237 2.4765778 -38.55432 7.4297256c-11.111084 4.919693 -19.745728 11.998016 -25.903687 21.234985c-6.157959 9.236969 -9.236938 20.030167 -9.236938 32.379593c0 13.353439 3.0789795 24.046234 9.236938 32.078384c6.157959 8.03215 13.604492 13.955856 22.339478 17.771118c8.768433 3.7817993 20.130493 7.530136 34.086426 11.24501c11.111084 2.8781738 19.795776 5.5555573 26.0542 8.032135c6.29187 2.4431152 11.546265 5.923706 15.763062 10.441803c4.216919 4.5180664 6.3253174 10.374847 6.3253174 17.570312c0 9.270416 -3.3968506 16.834015 -10.190796 22.690796c-6.7938232 5.856781 -16.248291 8.785187 -28.363525 8.785187c-11.713501 0 -20.816528 -2.9786072 -27.309204 -8.935791c-6.492676 -5.9571533 -10.140625 -13.570953 -10.943848 -22.8414l-37.650635 0c0 12.349426 3.2965088 23.159363 9.889526 32.42978c6.5930176 9.236969 15.645996 16.382263 27.158691 21.435791c11.512695 5.020111 24.4646 7.5301514 38.85547 7.5301514c15.194214 0 28.397095 -2.9284058 39.60852 -8.785156c11.211548 -5.856781 19.745728 -13.621185 25.60254 -23.293243c5.8566895 -9.672028 8.785156 -19.946472 8.785156 -30.823334c0 -13.5877075 -3.1292725 -24.431122 -9.387573 -32.530197c-6.258423 -8.132553 -13.872192 -14.156662 -22.84143 -18.072342c-8.935791 -3.9156647 -20.498657 -7.8146057 -34.688843 -11.696808c-10.676025 -2.8781738 -19.109863 -5.5555573 -25.30127 -8.03215c-6.157959 -2.4765625 -11.244995 -5.823303 -15.261108 -10.040176c-4.015991 -4.216873 -6.024048 -9.605103 -6.024048 -16.164688c0 -9.672043 3.1793213 -17.068314 9.538208 -22.188812c6.392212 -5.153961 14.625122 -7.7309265 24.698853 -7.7309265c11.111084 0 20.063599 2.777771 26.857422 8.3333435c6.7938232 5.5220947 10.492065 12.198822 11.094482 20.030167l38.85547 0c-1.4390869 -18.105804 -8.785156 -32.34613 -22.038208 -42.720978c-13.253052 -10.374855 -30.271118 -15.562279 -51.05432 -15.562279z" fill-rule="evenodd"/><path fill="#ffffff" d="m1566.014 196.29579c9.06958 0 17.553589 2.2088318 25.451782 6.6265106c7.9317627 4.417694 14.307373 10.8936 19.126587 19.427765c4.819336 8.534149 7.229004 18.658005 7.229004 30.371552c0 11.713562 -2.409668 22.00473 -7.229004 30.873566c-4.819214 8.835358 -11.194824 15.562256 -19.126587 20.180756c-7.8981934 4.618469 -16.382202 6.9277344 -25.451782 6.9277344c-8.835327 0 -17.218872 -2.2590637 -25.150635 -6.77713c-7.8983154 -4.518097 -14.273804 -11.144592 -19.126587 -19.879578c-4.819336 -8.768402 -7.228882 -19.0094 -7.228882 -30.722946c0 -11.713547 2.409546 -21.887589 7.228882 -30.522156c4.852783 -8.634552 11.2282715 -15.210876 19.126587 -19.728958c7.9317627 -4.5180817 16.315308 -6.777115 25.150635 -6.777115zm7.730957 -30.572357c-12.951904 0 -24.581787 2.6773834 -34.88965 8.03215c-10.274414 5.354767 -18.390259 11.931076 -24.347412 19.728958l0 -24.94986l-35.140747 0l0 250.75356l35.140747 0l0 -105.52231c6.392212 7.8313293 14.625122 14.374176 24.698853 19.62854c10.073608 5.220886 21.586304 7.83136 34.538208 7.83136c14.79248 0 28.296509 -3.748352 40.512085 -11.245026c12.249023 -7.4966736 21.87085 -17.971924 28.865479 -31.42575c6.994751 -13.487305 10.492065 -28.765137 10.492065 -45.833435c0 -17.068314 -3.4973145 -32.178787 -10.492065 -45.331436c-6.994629 -13.152634 -16.616455 -23.376892 -28.865479 -30.672745c-12.215576 -7.3293304 -25.719604 -10.994003 -40.512085 -10.994003z" fill-rule="evenodd"/><path fill="#ffffff" d="m1688.4857 110.201225l0 228.26352l35.140625 0l0 -94.9801c0 -15.227615 3.8486328 -26.890945 11.546143 -34.990036c7.730957 -8.132553 18.17273 -12.198822 31.32544 -12.198822c13.152588 0 23.527466 4.066269 31.124512 12.198822c7.630493 8.099075 11.445801 19.76242 11.445801 34.990036l0 94.9801l34.839478 0l0 -100.251205c0 -15.428406 -2.9284668 -28.58104 -8.785156 -39.457916c-5.8568115 -10.910324 -13.872192 -19.14328 -24.046265 -24.698853c-10.174072 -5.5555573 -21.73706 -8.3333435 -34.688843 -8.3333435c-10.910278 0 -20.950562 1.95784 -30.120483 5.8735046c-9.136597 3.91568 -16.683472 9.471237 -22.640625 16.666702l0 -78.062416z" fill-rule="evenodd"/><path fill="#ffffff" d="m1960.1958 195.34196c13.386841 0 24.598389 3.91568 33.634644 11.747025c9.036133 7.797867 13.654541 18.17273 13.855347 31.124557l-94.076416 0c1.6733398 -13.152634 6.8272705 -23.577698 15.461792 -31.275162c8.634644 -7.730942 19.009521 -11.59642 31.124634 -11.59642zm1.5561523 -29.61853c-16.666626 0 -31.42566 3.5977325 -44.2771 10.793198c-12.85144 7.195465 -22.824707 17.436447 -29.9198 30.722961c-7.095093 13.2530365 -10.642578 28.614517 -10.642578 46.084427c0 17.469925 3.6479492 32.84813 10.943848 46.13463c7.3292236 13.253052 17.419678 23.527496 30.271118 30.823364c12.85144 7.295868 27.392944 10.943817 43.62451 10.943817c19.946533 0 36.64673 -4.9866333 50.100586 -14.9599c13.487305 -9.973236 22.791138 -22.774445 27.911743 -38.403687l-37.901733 0c-7.831299 15.830048 -21.201538 23.745026 -40.110596 23.745026c-13.152588 0 -24.263672 -4.0997314 -33.333374 -12.299225c-9.036133 -8.232941 -14.072998 -19.14328 -15.110474 -32.730988l129.86975 0c0.8366699 -5.1204834 1.2550049 -10.876846 1.2550049 -17.269104c0 -16.432434 -3.4973145 -30.973969 -10.491943 -43.624588c-6.994629 -12.650635 -16.76709 -22.473282 -29.317383 -29.467941c-12.550171 -6.9946594 -26.840698 -10.491989 -42.871582 -10.491989z" fill-rule="evenodd"/><path fill="#ffffff" d="m2165.0078 165.72343c-11.713623 0 -21.837402 2.4263763 -30.371582 7.279129c-8.53418 4.81929 -15.378174 11.546219 -20.532227 20.18077l0 -24.648651l-35.140625 0l0 169.93007l35.140625 0l0 -89.45801c0 -17.26912 3.5476074 -29.401001 10.642578 -36.39566c7.095215 -6.9946594 17.536865 -10.491989 31.32544 -10.491989l8.935791 0l0 -36.39566z" fill-rule="evenodd"/><path fill="#ffffff" d="m2268.9385 195.34196c13.386963 0 24.598389 3.91568 33.63452 11.747025c9.036133 7.797867 13.654785 18.17273 13.855469 31.124557l-94.076416 0c1.6733398 -13.152634 6.8271484 -23.577698 15.461914 -31.275162c8.6345215 -7.730942 19.009277 -11.59642 31.124512 -11.59642zm1.5561523 -29.61853c-16.666748 0 -31.425781 3.5977325 -44.2771 10.793198c-12.8515625 7.195465 -22.824707 17.436447 -29.919922 30.722961c-7.0949707 13.2530365 -10.642578 28.614517 -10.642578 46.084427c0 17.469925 3.6479492 32.84813 10.943848 46.13463c7.3293457 13.253052 17.419678 23.527496 30.27124 30.823364c12.851318 7.295868 27.392822 10.943817 43.62451 10.943817c19.946533 0 36.64673 -4.9866333 50.100586 -14.9599c13.487305 -9.973236 22.79126 -22.774445 27.911621 -38.403687l-37.90161 0c-7.831299 15.830048 -21.201416 23.745026 -40.110596 23.745026c-13.152588 0 -24.263672 -4.0997314 -33.333252 -12.299225c-9.036377 -8.232941 -14.072998 -19.14328 -15.110596 -32.730988l129.86987 0c0.8366699 -5.1204834 1.2548828 -10.876846 1.2548828 -17.269104c0 -16.432434 -3.4973145 -30.973969 -10.491943 -43.624588c-6.994629 -12.650635 -16.76709 -22.473282 -29.317383 -29.467941c-12.550293 -6.9946594 -26.84082 -10.491989 -42.871582 -10.491989z" fill-rule="evenodd"/></g></svg>